<svg width="192" height="192" xmlns="http://www.w3.org/2000/svg">
  <defs>
    <linearGradient id="iconBg" x1="0%" y1="0%" x2="100%" y2="100%">
      <stop offset="0%" style="stop-color:#3b82f6;stop-opacity:1" />
      <stop offset="100%" style="stop-color:#8b5cf6;stop-opacity:1" />
    </linearGradient>
    <linearGradient id="iconAccent" x1="0%" y1="0%" x2="100%" y2="100%">
      <stop offset="0%" style="stop-color:#60a5fa;stop-opacity:1" />
      <stop offset="100%" style="stop-color:#c084fc;stop-opacity:1" />
    </linearGradient>
  </defs>
  
  <!-- Background circle -->
  <circle cx="96" cy="96" r="88" fill="url(#iconBg)"/>
  
  <!-- Inner glow -->
  <circle cx="96" cy="96" r="80" fill="none" stroke="white" stroke-width="1" opacity="0.2"/>
  
  <!-- Shield shape -->
  <path d="M 96 40 L 60 55 C 58 56 56 58 56 61 L 56 100 C 56 120 65 138 80 148 L 92 156 C 94 157 98 157 100 156 L 112 148 C 127 138 136 120 136 100 L 136 61 C 136 58 134 56 132 55 L 96 40 Z" 
        fill="white" opacity="0.9"/>
  
  <!-- Shield inner design - representing water, fire, and protection -->
  <g transform="translate(96, 96)">
    <!-- Water drop -->
    <path d="M -15 -10 Q -15 0 -10 5 Q -5 10 0 10 Q 5 10 10 5 Q 15 0 15 -10 Q 15 -15 0 -25 Q -15 -15 -15 -10 Z" 
          fill="url(#iconAccent)" opacity="0.8" transform="translate(-20, -15) scale(0.8)"/>
    
    <!-- Flame -->
    <path d="M 0 -15 Q -8 -10 -8 0 Q -8 10 0 15 Q 8 10 8 0 Q 8 -10 0 -15 Z" 
          fill="#f97316" opacity="0.8" transform="translate(20, -15) scale(0.8)"/>
    
    <!-- Check mark (protection/safety) -->
    <path d="M -15 5 L -5 15 L 15 -5" 
          fill="none" stroke="#10b981" stroke-width="4" stroke-linecap="round" stroke-linejoin="round" 
          transform="translate(0, 10) scale(0.8)"/>
  </g>
  
  <!-- Outer ring accent -->
  <circle cx="96" cy="96" r="88" fill="none" stroke="white" stroke-width="2" opacity="0.3"/>
</svg>